<?xml version="1.0" encoding="UTF-8"?>
<svg width="60px" height="60px" viewBox="0 0 60 60" version="1.1" xmlns="http://www.w3.org/2000/svg" xmlns:xlink="http://www.w3.org/1999/xlink">
    <!-- Generator: Sketch 47.1 (45422) - http://www.bohemiancoding.com/sketch -->
    <title>magnifying-glass</title>
    <desc>Created with Sketch.</desc>
    <defs></defs>
    <g id="MFN---Excercise" stroke="none" stroke-width="1" fill="none" fill-rule="evenodd">
        <g id="Desktop---Homepage" transform="translate(-337.000000, -1184.000000)" fill="#00B2CB">
            <g id="How-it-works" transform="translate(0.000000, 820.000000)">
                <g id="Find" transform="translate(237.000000, 364.000000)">
                    <path d="M133.707,22.293 C134.098,22.684 134.098,23.316 133.707,23.707 C133.512,23.902 133.256,24 133,24 C132.744,24 132.488,23.902 132.293,23.707 L124.293,15.707 C123.902,15.316 123.902,14.684 124.293,14.293 C124.684,13.902 125.316,13.902 125.707,14.293 L133.707,22.293 Z M135.707,16.293 C136.098,16.684 136.098,17.316 135.707,17.707 C135.512,17.902 135.256,18 135,18 C134.744,18 134.488,17.902 134.293,17.707 L130.293,13.707 C129.902,13.316 129.902,12.684 130.293,12.293 C130.684,11.902 131.316,11.902 131.707,12.293 L135.707,16.293 Z M160,55.001 C160,56.336 159.479,57.591 158.535,58.536 C157.561,59.51 156.279,59.998 154.999,59.998 C153.719,59.998 152.439,59.511 151.465,58.536 L139.615,46.687 C139.225,46.296 139.225,45.663 139.615,45.272 C140.006,44.882 140.639,44.882 141.029,45.272 L152.879,57.122 C154.05,58.292 155.952,58.29 157.121,57.121 C157.687,56.555 158,55.801 158,55.001 C158,54.199 157.687,53.446 157.121,52.879 L150.822,46.581 L148.709,48.705 C148.32,49.098 147.687,49.099 147.295,48.709 C146.903,48.319 146.901,47.687 147.291,47.295 L150.111,44.46 C150.299,44.271 150.554,44.165 150.819,44.165 L150.82,44.165 C151.086,44.165 151.34,44.27 151.527,44.458 L158.535,51.465 C159.479,52.409 160,53.665 160,55.001 L160,55.001 Z M124,42 C114.075,42 106,33.925 106,24 C106,14.075 114.075,6 124,6 C133.925,6 142,14.075 142,24 C142,33.925 133.925,42 124,42 L124,42 Z M124,4 C112.972,4 104,12.972 104,24 C104,35.028 112.972,44 124,44 C135.028,44 144,35.028 144,24 C144,12.972 135.028,4 124,4 L124,4 Z M124,46 C111.869,46 102,36.131 102,24 C102,11.869 111.869,2 124,2 C136.131,2 146,11.869 146,24 C146,36.131 136.131,46 124,46 L124,46 Z M142.947,38.705 L147.393,43.151 C147.588,43.347 147.844,43.444 148.1,43.444 C148.355,43.444 148.611,43.347 148.807,43.151 C149.197,42.761 149.197,42.128 148.807,41.737 L144.124,37.054 C146.571,33.293 148,28.812 148,24 C148,10.767 137.233,0 124,0 C110.767,0 100,10.767 100,24 C100,37.233 110.767,48 124,48 C131.695,48 138.552,44.355 142.947,38.705 L142.947,38.705 Z" id="magnifying-glass"></path>
                </g>
            </g>
        </g>
    </g>
</svg>