<?xml version="1.0" encoding="UTF-8"?>
<svg width="60px" height="60px" viewBox="0 0 60 60" version="1.1" xmlns="http://www.w3.org/2000/svg" xmlns:xlink="http://www.w3.org/1999/xlink">
    <!-- Generator: Sketch 47.1 (45422) - http://www.bohemiancoding.com/sketch -->
    <title>money-give</title>
    <desc>Created with Sketch.</desc>
    <defs></defs>
    <g id="MFN---Excercise" stroke="none" stroke-width="1" fill="none" fill-rule="evenodd">
        <g id="Desktop---Homepage" transform="translate(-1044.000000, -1184.000000)" fill="#00B2CB">
            <g id="How-it-works" transform="translate(0.000000, 820.000000)">
                <g id="Transfer" transform="translate(944.000000, 364.000000)">
                    <path d="M124,18 C124,26.822 131.178,34 140,34 C148.822,34 156,26.822 156,18 C156,9.178 148.822,2 140,2 C131.178,2 124,9.178 124,18 M122,18 C122,8.075 130.075,0 140,0 C149.925,0 158,8.075 158,18 C158,27.925 149.925,36 140,36 C130.075,36 122,27.925 122,18 M103.5,55 C102.673,55 102,54.327 102,53.5 C102,52.673 102.673,52 103.5,52 C104.327,52 105,52.673 105,53.5 C105,54.327 104.327,55 103.5,55 M128,18 C128,24.617 133.383,30 140,30 C146.617,30 152,24.617 152,18 C152,11.383 146.617,6 140,6 C133.383,6 128,11.383 128,18 M126,18 C126,10.28 132.28,4 140,4 C147.72,4 154,10.28 154,18 C154,25.72 147.72,32 140,32 C132.28,32 126,25.72 126,18 M113,38 L121,38 C122.167,38 124.15,39.488 125.9,40.8 C128.094,42.446 130.167,44 132,44 L138,44 C139.519,44 140.273,44.689 140.293,44.707 C140.488,44.902 140.744,45 141,45 C141.256,45 141.512,44.902 141.707,44.707 C142.098,44.316 142.098,43.684 141.707,43.293 C141.575,43.161 140.347,42 138,42 L132,42 C130.833,42 128.85,40.512 127.1,39.2 C124.906,37.554 122.833,36 121,36 L113,36 C112.447,36 112,36.448 112,37 C112,37.552 112.447,38 113,38 M159.464,42 C158.361,40.089 155.906,39.435 154.062,40.503 L142.553,46.105 C140.764,47 138.958,47 135,47 C131.131,47 125.224,46.023 125.164,46.014 C124.62,45.923 124.104,46.291 124.014,46.835 C123.923,47.38 124.291,47.896 124.836,47.986 C125.084,48.028 130.964,49 135,49 C139.152,49 141.236,49 143.437,47.899 L155,42.268 C155.462,42.001 156,41.93 156.518,42.068 C157.033,42.207 157.465,42.538 157.731,43 C157.999,43.463 158.07,44.002 157.932,44.518 C157.794,45.034 157.463,45.465 156.972,45.749 L143.451,54.164 C143.423,54.183 140.538,56 134,56 C128.331,56 119.573,51.174 119.447,51.105 C119.356,51.061 117.188,50 113,50 C112.447,50 112,50.448 112,51 C112,51.552 112.447,52 113,52 C116.637,52 118.511,52.875 118.515,52.875 L118.515,52.874 C118.893,53.084 127.813,58 134,58 C141.22,58 144.422,55.92 144.528,55.849 L158,47.464 C158.925,46.93 159.587,46.067 159.863,45.036 C160.141,44.003 159.998,42.925 159.464,42 M110,35 L110,57 C110,58.654 108.654,60 107,60 L101,60 C100.447,60 100,59.552 100,59 C100,58.448 100.447,58 101,58 L107,58 C107.552,58 108,57.551 108,57 L108,35 C108,34.449 107.552,34 107,34 L101,34 C100.447,34 100,33.552 100,33 C100,32.448 100.447,32 101,32 L107,32 C108.654,32 110,33.346 110,35" id="money-give"></path>
                </g>
            </g>
        </g>
    </g>
</svg>