<?xml version="1.0" encoding="UTF-8"?>
<svg width="135px" height="10px" viewBox="0 0 135 10" version="1.1" xmlns="http://www.w3.org/2000/svg" xmlns:xlink="http://www.w3.org/1999/xlink">
    <!-- Generator: Sketch 47.1 (45422) - http://www.bohemiancoding.com/sketch -->
    <title>Logo</title>
    <desc>Created with Sketch.</desc>
    <defs></defs>
    <g id="Symbols" stroke="none" stroke-width="1" fill="none" fill-rule="evenodd">
        <g id="Footer-Desktop" transform="translate(-250.000000, -50.000000)">
            <g id="Footer">
                <g id="Logo" transform="translate(250.000000, 50.000000)">
                    <path d="M9.07075465,2.7095813 L5.81652991,6.95591381 L5.44542589,6.95591381 L2.26247123,2.69552262 L2.26247123,9.80539425 L0.37962963,9.80539425 L0.37962963,0.0280409535 L2.54895667,0.0280409535 L5.67375556,4.23135697 L8.79855446,0.0280409535 L10.9536743,0.0280409535 L10.9536743,9.80547066 L9.07083272,9.80547066 L9.07083272,2.7096577 L9.07075465,2.7095813 L9.07075465,2.7095813 Z M18.7845624,4.04989303 L21.439978,0.0137530562 L23.7076624,0.0137530562 L23.7076624,0.0971882641 L19.7274664,5.75427873 L19.7274664,9.79080073 L17.8429074,9.79080073 L17.8429074,5.75427873 L14.0046271,0.0971882641 L14.0046271,0.0137530562 L16.2445997,0.0137530562 L18.7845624,4.04989303 Z M26.3890724,9.79125917 L26.3890724,0.0284229829 L33.5660399,0.0284229829 L33.5660399,1.80195599 L28.2726946,1.80195599 L28.2726946,4.46928484 L33.2815841,4.46928484 L33.2815841,6.17389976 L28.2726946,6.17389976 L28.2726946,9.79141198 L26.3890724,9.79141198 L26.3890724,9.79125917 Z M45.4796187,0.0284229829 L45.4796187,5.62820905 C45.4796187,8.52017115 43.6679691,10 41.1553279,10 C38.7582176,10 36.7181603,8.57564181 36.7181603,5.62836186 L36.7181603,0.0285757946 L38.5874192,0.0285757946 L38.5874192,5.62836186 C38.5874192,7.38722494 39.613927,8.3241901 41.1696912,8.3241901 C42.7249871,8.3241901 43.6103598,7.30417176 43.6103598,5.62828545 L43.6103598,0.0284993888 L45.4796187,0.0284993888 L45.4796187,0.0284229829 L45.4796187,0.0284229829 Z M51.7566941,1.68986858 L48.588415,1.68986858 L48.588415,0.0137530562 L56.8064878,0.0137530562 L56.8064878,1.68986858 L53.6405505,1.68986858 L53.6405505,9.79087714 L51.7566941,9.79087714 L51.7566941,1.68986858 L51.7566941,1.68986858 Z M68.8622945,0.0284229829 L68.8622945,5.62820905 C68.8622945,8.52017115 67.0512694,10 64.5384721,10 C62.1412057,10 60.1014606,8.57564181 60.1014606,5.62836186 L60.1014606,0.0285757946 L61.9702511,0.0285757946 L61.9702511,5.62836186 C61.9702511,7.38722494 62.9975395,8.3241901 64.5533037,8.3241901 C66.1082874,8.3241901 66.9942845,7.30417176 66.9942845,5.62828545 L66.9942845,0.0284993888 L68.8622945,0.0284993888 L68.8622945,0.0284229829 Z M74.4546151,1.73227384 L74.4546151,4.85987164 L77.3225919,4.85987164 C78.5216154,4.85987164 79.0352596,4.07854523 79.0352596,3.29676039 C79.0352596,2.51360024 78.5067837,1.73235024 77.3225919,1.73235024 L74.4546151,1.73235024 L74.4546151,1.73227384 Z M81.4169137,9.79080073 L79.1773313,9.79080073 L76.2672014,6.52261614 L74.4546151,6.52261614 L74.4546151,9.79087714 L72.5702122,9.79087714 L72.5702122,0 C74.1540786,0 75.7379449,0.0140586797 77.3225919,0.0140586797 C79.6761439,0.0280409535 80.9181012,1.56540342 80.9181012,3.25366748 C80.9181012,4.59397922 80.2912679,5.950489 78.3935946,6.32655868 L81.4169137,9.66549511 L81.4169137,9.79080073 Z M91.4907407,9.79125917 L84.0124561,9.79125917 L84.0124561,0.0141350856 L91.4907407,0.0141350856 L91.4907407,1.8020324 L85.8828079,1.8020324 L85.8828079,4.05027506 L91.2916841,4.05027506 L91.2916841,5.76902506 L85.8828079,5.76902506 L85.8828079,7.97470966 L91.4907407,7.97470966 L91.4907407,9.79125917 L91.4907407,9.79125917 Z" id="Shape" fill="#333B3D"></path>
                    <path d="M101.792926,0.178722639 L103.669339,0.178722639 L103.669339,9.78178603 L102.502416,9.78178603 L102.502416,9.79602389 L97.2699313,3.31502394 L97.2699313,9.78178603 L95.3935185,9.78178603 L95.3935185,0.192585821 L96.9136307,0.192585821 L101.792926,6.13749279 L101.792926,0.178722639 Z M108.786687,5.08404086 C108.828696,6.65844867 109.710891,8.34278777 112.057962,8.34278777 C114.403478,8.34278777 115.285673,6.64548472 115.315235,5.0689787 C115.342463,3.45215704 114.403478,1.64379866 112.057962,1.64379866 C109.710891,1.64379866 108.7439,3.46594528 108.786687,5.08389098 L108.786687,5.08404086 Z M117.162863,5.04177689 C117.134079,7.52118819 115.556399,10 112.057962,10 C108.560304,10 106.938281,7.57671585 106.938281,5.05481577 C106.938281,2.53508884 108.616316,0 112.057962,0 C115.48405,0 117.192425,2.53508884 117.162863,5.04170195 L117.162863,5.04177689 Z M130.699953,9.78141135 L129.106713,9.78141135 L127.868996,6.76710604 L126.816432,3.74028641 L125.77787,6.79520709 L124.570493,9.78141135 L122.977254,9.78141135 L119.321672,0.192585821 L121.427579,0.192585821 L123.772317,7.10933929 L126.190961,0.192510884 L127.413896,0.192510884 L129.902555,7.10933929 L132.177278,0.192510884 L134.282407,0.192510884 L130.699953,9.78156122 L130.699953,9.78141135 L130.699953,9.78141135 Z" id="Shape" fill="#49C2C4"></path>
                </g>
            </g>
        </g>
    </g>
</svg>