<?xml version="1.0" encoding="UTF-8"?>
<svg width="60px" height="60px" viewBox="0 0 60 60" version="1.1" xmlns="http://www.w3.org/2000/svg" xmlns:xlink="http://www.w3.org/1999/xlink">
    <!-- Generator: Sketch 47.1 (45422) - http://www.bohemiancoding.com/sketch -->
    <title>stats-pipes</title>
    <desc>Created with Sketch.</desc>
    <defs></defs>
    <g id="MFN---Excercise" stroke="none" stroke-width="1" fill="none" fill-rule="evenodd">
        <g id="Desktop---Homepage" transform="translate(-690.000000, -1184.000000)" fill="#00B2CB">
            <g id="How-it-works" transform="translate(0.000000, 820.000000)">
                <g id="Compare" transform="translate(590.000000, 364.000000)">
                    <path d="M108,39 L108,52 L112,52 L112,39 C112,38.448 112.448,38 113,38 C113.552,38 114,38.448 114,39 L114,53 C114,53.552 113.552,54 113,54 L107,54 C106.448,54 106,53.552 106,53 L106,39 C106,38.448 106.448,38 107,38 C107.552,38 108,38.448 108,39 L108,39 Z M117,38 C116.448,38 116,38.448 116,39 L116,45 C116,45.552 116.448,46 117,46 L123,46 C123.552,46 124,45.552 124,45 L124,39 C124,38.448 123.552,38 123,38 C122.448,38 122,38.448 122,39 L122,44 L118,44 L118,39 C118,38.448 117.552,38 117,38 L117,38 Z M153,32 C153.553,32 154,31.552 154,31 L154,7 C154,6.448 153.553,6 153,6 L147,6 C146.447,6 146,6.448 146,7 L146,31 C146,31.552 146.447,32 147,32 C147.553,32 148,31.552 148,31 L148,8 L152,8 L152,31 C152,31.552 152.447,32 153,32 L153,32 Z M143,32 C143.553,32 144,31.552 144,31 L144,15 C144,14.448 143.553,14 143,14 L137,14 C136.447,14 136,14.448 136,15 L136,31 C136,31.552 136.447,32 137,32 C137.553,32 138,31.552 138,31 L138,16 L142,16 L142,31 C142,31.552 142.447,32 143,32 L143,32 Z M133,32 C133.553,32 134,31.552 134,31 L134,23 C134,22.448 133.553,22 133,22 L127,22 C126.448,22 126,22.448 126,23 L126,31 C126,31.552 126.448,32 127,32 C127.552,32 128,31.552 128,31 L128,24 L132,24 L132,31 C132,31.552 132.447,32 133,32 L133,32 Z M160,35 L160,5 C160,2.243 157.757,0 155,0 L105,0 C102.243,0 100,2.243 100,5 L100,31 C100,31.552 100.448,32 101,32 C101.552,32 102,31.552 102,31 L102,5 C102,3.346 103.346,2 105,2 L155,2 C156.654,2 158,3.346 158,5 L158,34 L101,34 C100.448,34 100,34.448 100,35 L100,55 C100,57.757 102.243,60 105,60 L155,60 C157.757,60 160,57.757 160,55 L160,39 C160,38.448 159.553,38 159,38 C158.447,38 158,38.448 158,39 L158,55 C158,56.654 156.654,58 155,58 L105,58 C103.346,58 102,56.654 102,55 L102,36 L159,36 C159.553,36 160,35.552 160,35 L160,35 Z M113,8 C112.448,8 112,8.448 112,9 L112,12 L109,12 C108.448,12 108,12.448 108,13 C108,13.552 108.448,14 109,14 L112,14 L112,17 C112,17.552 112.448,18 113,18 C113.552,18 114,17.552 114,17 L114,14 L117,14 C117.552,14 118,13.552 118,13 C118,12.448 117.552,12 117,12 L114,12 L114,9 C114,8.448 113.552,8 113,8 L113,8 Z M143,46 C142.447,46 142,46.448 142,47 C142,47.552 142.447,48 143,48 L151,48 C151.553,48 152,47.552 152,47 C152,46.448 151.553,46 151,46 L143,46 L143,46 Z" id="stats-pipes"></path>
                </g>
            </g>
        </g>
    </g>
</svg>